<svg id="图层_1" data-name="图层 1" xmlns="http://www.w3.org/2000/svg" xmlns:xlink="http://www.w3.org/1999/xlink" viewBox="0 0 70.26 70.26"><defs><style>.cls-1{fill:url(#未命名的渐变_25);}.cls-2{opacity:0.75;}.cls-3{fill:#fff;}</style><linearGradient id="未命名的渐变_25" x1="617.82" y1="400.09" x2="661.63" y2="324.22" gradientTransform="matrix(1, 0, 0, -1, 0, 721)" gradientUnits="userSpaceOnUse"><stop offset="0" stop-color="#e5b10c"/><stop offset="1" stop-color="#fadd39"/></linearGradient></defs><title>GOLDx-logo</title><path class="cls-1" d="M640.37,395.09A35.13,35.13,0,1,0,605.24,360,35.13,35.13,0,0,0,640.37,395.09Z" transform="translate(-605.24 -324.83)"/><g class="cls-2"><path class="cls-3" d="M628.39,368.33a5,5,0,0,1-5-5v-20a2.69,2.69,0,1,1,5.39,0v19.61h13.49a2.93,2.93,0,1,0,0-5.86h-7.62a2.69,2.69,0,1,1,0-5.39h7.63a8.32,8.32,0,0,1,0,16.63Z" transform="translate(-605.24 -324.83)"/></g><path class="cls-3" d="M626.09,379.28a2.69,2.69,0,0,1,0-5.39H642A13.93,13.93,0,1,0,642,346H626.08a2.69,2.69,0,0,1,0-5.39H642a19.32,19.32,0,0,1,0,38.64Z" transform="translate(-605.24 -324.83)"/></svg>