<svg id="图层_1" data-name="图层 1" xmlns="http://www.w3.org/2000/svg" viewBox="0 0 1539.67 609.68"><defs><style>.cls-1{fill:#070237;}.cls-2,.cls-3{fill:#d5a24e;}.cls-3{font-size:230px;stroke:#d5a24e;stroke-miterlimit:10;stroke-width:6px;font-family:ArialMT, Arial;}</style></defs><title>logo-goldx</title><g id="_编组_" data-name="&lt;编组&gt;"><g id="_编组_2" data-name="&lt;编组&gt;"><path class="cls-1" d="M532.8,744H398.41V313.12h50.75V693.26H532.8c71.39,0,130.45-22.92,175.54-68.12,44.92-45,67.7-105.9,67.7-180.92,0-71.7-22.72-129.58-67.54-172-45.12-42.72-102.62-64.39-170.89-64.39H398.27V157.06H537.6c81.69,0,150.93,26.34,205.79,78.29,55.34,52.41,83.4,122.69,83.4,208.87,0,88.94-27.76,161.87-82.52,216.76C689.31,716.07,618.16,744,532.8,744Z" transform="translate(-321.6 -157.06)"/></g></g><g id="_编组_3" data-name="&lt;编组&gt;"><path class="cls-2" d="M475.49,658.78h0c74.6,0,136.66-19.85,184.47-59,48.46-39.68,73-93,73-158.42,0-63.06-24.69-114.14-73.37-151.8-47.75-36.93-108.14-53.28-179.5-53.28H321.6V658.78h50.09V285.53H485.15c28.72,0,55.3,3.71,79,11,23.46,7.24,44.82,15.85,63.51,30.3,18.35,14.2,32.28,31,41.4,49.92s13.84,41,13.84,65.14c0,25.39-4.69,48.47-13.94,68.6-9.17,20-23.17,37.75-41.6,52.84A193.44,193.44,0,0,1,563,597.88c-24.36,7.74-51.94,11.67-82,11.67l-5.53.17Z" transform="translate(-321.6 -157.06)"/></g><path id="_复合路径_" data-name="&lt;复合路径&gt;" class="cls-2" d="M1082.77,208.06V419.42h-36.18V344q0-18.39-12.66-30.75a43.28,43.28,0,0,0-61.21,61.21,39,39,0,0,0,14,9.5,45,45,0,0,0,16.73,3.17,41.12,41.12,0,0,0,16-3l13,32.26q-13.87,6.93-32,6.94a75.06,75.06,0,0,1-30.6-6.18,74.06,74.06,0,0,1-24.27-17,78.54,78.54,0,0,1-16-25.33,86.22,86.22,0,0,1,0-61.81,78.54,78.54,0,0,1,16-25.33,74.15,74.15,0,0,1,24.27-17,75.06,75.06,0,0,1,30.6-6.18,70.16,70.16,0,0,1,25.93,4.52,79,79,0,0,1,20.2,11.46V208.06Z" transform="translate(-321.6 -157.06)"/><path id="_复合路径_2" data-name="&lt;复合路径&gt;" class="cls-1" d="M1155.13,244.54V295.8h78.7l9,36.18h-87.74v87.44H1119V208.36h142v36.18Z" transform="translate(-321.6 -157.06)"/><path id="_复合路径_3" data-name="&lt;复合路径&gt;" class="cls-1" d="M1343.58,264.44a78.29,78.29,0,0,1,31.06,6.18A79.45,79.45,0,0,1,1417,313a80.35,80.35,0,0,1,0,61.81,79.45,79.45,0,0,1-42.36,42.36,81.1,81.1,0,0,1-62.11,0,79.45,79.45,0,0,1-42.36-42.36,80.34,80.34,0,0,1,0-61.81,79.45,79.45,0,0,1,42.36-42.36A78.28,78.28,0,0,1,1343.58,264.44Zm0,36.18a43.28,43.28,0,0,0-30.75,73.87,39,39,0,0,0,14,9.5,45,45,0,0,0,16.73,3.17,43.88,43.88,0,0,0,16.58-3.17,42.39,42.39,0,0,0,14.17-9.5,43.31,43.31,0,0,0,0-61.21Q1361.06,300.62,1343.58,300.62Z" transform="translate(-321.6 -157.06)"/><path id="_复合路径_4" data-name="&lt;复合路径&gt;" class="cls-1" d="M1505.64,268.66a61.83,61.83,0,0,1,24.27-4.52v36.18A41.87,41.87,0,0,0,1499.16,313q-12.66,13.27-12.66,30.75v75.68h-36.18V268.36h36.18v11.76A77.41,77.41,0,0,1,1505.64,268.66Z" transform="translate(-321.6 -157.06)"/><path id="_复合路径_5" data-name="&lt;复合路径&gt;" class="cls-1" d="M1684,400.12a79.67,79.67,0,0,1-25.33,17,81.1,81.1,0,0,1-62.11,0,79.45,79.45,0,0,1-42.36-42.36,80.34,80.34,0,0,1,0-61.81,79.45,79.45,0,0,1,42.36-42.36,81.11,81.11,0,0,1,62.11,0,79.77,79.77,0,0,1,25.33,17l-25.63,25.63a41.87,41.87,0,0,0-30.75-12.66q-17.49,0-30.75,12.66a43.31,43.31,0,0,0,0,61.21A42.34,42.34,0,0,0,1611,384a43.85,43.85,0,0,0,16.58,3.17q18.39,0,30.75-12.66Z" transform="translate(-321.6 -157.06)"/><path id="_复合路径_6" data-name="&lt;复合路径&gt;" class="cls-1" d="M1821.17,362.13h-79a37.43,37.43,0,0,0,8.74,12.36,42.34,42.34,0,0,0,14.17,9.5,43.85,43.85,0,0,0,16.58,3.17,42.28,42.28,0,0,0,22-5.73l37.69,15.08a76,76,0,0,1-26.23,19.75,79.83,79.83,0,0,1-106.89-41.46,80.34,80.34,0,0,1,0-61.81,79.45,79.45,0,0,1,42.36-42.36,81.11,81.11,0,0,1,62.11,0A79.45,79.45,0,0,1,1855.09,313a78.3,78.3,0,0,1,6.18,31.06,74.51,74.51,0,0,1-2.11,18.09Zm-39.5-61.51q-17.49,0-30.75,12.66a40.87,40.87,0,0,0-8.74,12.66h79a41,41,0,0,0-8.74-12.66A41.87,41.87,0,0,0,1781.67,300.62Z" transform="translate(-321.6 -157.06)"/><text class="cls-3" transform="translate(593.93 532) scale(0.92 1)">GOLDx</text></svg>