<svg id="图层_1" data-name="图层 1" xmlns="http://www.w3.org/2000/svg" viewBox="0 0 18 18"><defs><style>.cls-1{fill:#6f779e;}.cls-2{fill:#a9b5db;stroke:#a9b5db;stroke-miterlimit:10;stroke-width:0.25px;}</style></defs><title>icon-yw</title><circle class="cls-1" cx="9" cy="9" r="9"/><path class="cls-2" d="M603.25,397.53a2.9,2.9,0,0,1-.35,1.41,3.67,3.67,0,0,1-.94,1.12,3,3,0,0,0-.82.94,1.85,1.85,0,0,0-.24.65v.41h-1.06v-.59a2.17,2.17,0,0,1,.26-1,4.23,4.23,0,0,1,.91-1.09,2.2,2.2,0,0,0,.82-1.7,1.64,1.64,0,0,0-.35-1.15,1.29,1.29,0,0,0-1-.38,1.39,1.39,0,0,0-1.09.5,2.42,2.42,0,0,0-.44,1.62h-1.35a3.42,3.42,0,0,1,.88-2.44,2.77,2.77,0,0,1,2-.79,2.81,2.81,0,0,1,2,.71A2.41,2.41,0,0,1,603.25,397.53Zm-2.06,6.87a.8.8,0,1,1-.24-.59A.8.8,0,0,1,601.19,404.41Z" transform="translate(-591.43 -391.12)"/></svg>