<svg id="图层_1" data-name="图层 1" xmlns="http://www.w3.org/2000/svg" viewBox="0 0 39 39"><defs><style>.cls-1{fill:none;stroke:#b8bbcd;stroke-miterlimit:10;}.cls-2{fill:#a4a7be;}</style></defs><title>推特</title><circle class="cls-1" cx="19.5" cy="19.5" r="19"/><path class="cls-2" d="M20.56,100.22a8.43,8.43,0,0,0,6.73-2A4.63,4.63,0,0,1,23,94.69a4.16,4.16,0,0,0,2-.09,5,5,0,0,1-3.66-4.94v-.09a4.48,4.48,0,0,0,2,.68,5.37,5.37,0,0,1-2-4.17,5,5,0,0,1,.6-2.47A13,13,0,0,0,31.37,89a4.86,4.86,0,0,1-.09-1.11A4.66,4.66,0,0,1,35.71,83h.09a4.32,4.32,0,0,1,3.32,1.62A9.25,9.25,0,0,0,42,83.53a5.26,5.26,0,0,1-2,2.73,24.27,24.27,0,0,0,2.64-1,10.79,10.79,0,0,1-2.3,2.55v.6c0,6.47-4.6,14.05-12.94,14.05A11.88,11.88,0,0,1,20.56,100.22Z" transform="translate(-11.38 -72.48)"/></svg>