<svg id="图层_1" data-name="图层 1" xmlns="http://www.w3.org/2000/svg" viewBox="0 0 30 30"><defs><style>.cls-1{fill:#070237;}.cls-2{fill:#fff;}</style></defs><title>logo-weixin</title><circle class="cls-1" cx="15" cy="15" r="15"/><path class="cls-2" d="M639.66,450.52a6.29,6.29,0,0,1,.7,0c-.63-2.92-3.75-5.09-7.31-5.09-4,0-7.24,2.71-7.24,6.16a5.94,5.94,0,0,0,2.9,4.89L628,458.7l2.53-1.27a12.39,12.39,0,0,0,2.54.36l.68,0a5.4,5.4,0,0,1-.22-1.52A5.93,5.93,0,0,1,639.66,450.52Zm-3.89-2a.91.91,0,1,1,0,1.81.92.92,0,1,1,0-1.81Zm-5.07,1.81a.92.92,0,1,1,0-1.81.91.91,0,0,1,0,1.81Z" transform="translate(-621.04 -438.81)"/><path class="cls-2" d="M646.27,456.16c0-2.9-2.9-5.26-6.15-5.26-3.45,0-6.16,2.36-6.16,5.26s2.71,5.26,6.16,5.26a9.1,9.1,0,0,0,2.17-.36l2,1.09-.54-1.81A5.49,5.49,0,0,0,646.27,456.16Zm-8.15-.91a.72.72,0,0,1,0-1.45.74.74,0,1,1,0,1.45Zm4,0a.72.72,0,0,1,0-1.45.74.74,0,1,1,0,1.45Z" transform="translate(-621.04 -438.81)"/></svg>