<svg id="图层_1" data-name="图层 1" xmlns="http://www.w3.org/2000/svg" viewBox="0 0 39 39"><defs><style>.cls-1{fill:none;stroke:#b8bbcd;stroke-miterlimit:10;}.cls-2{fill:#a4a7be;}</style></defs><title>21</title><circle class="cls-1" cx="19.5" cy="19.5" r="19"/><polygon class="cls-2" points="16.41 22.34 23.43 25.69 16.41 14.82 16.41 22.34"/><path class="cls-2" d="M67.34,59.67l-6.77-3.18a1.46,1.46,0,0,0-.59-.25.44.44,0,0,0-.38.17.68.68,0,0,0-.13.42V71.21a1.11,1.11,0,0,0,.17.54,1.15,1.15,0,0,0,.5.46l6.19,2.93a.93.93,0,0,0,.42.08.6.6,0,0,0,.5-.21.84.84,0,0,0,.17-.54V59.75A.07.07,0,0,0,67.34,59.67Z" transform="translate(-51.85 -46.19)"/><path class="cls-2" d="M82,75a1,1,0,0,0,.59.17.59.59,0,0,0,.67-.67V61.26l-7.11,11Z" transform="translate(-51.85 -46.19)"/><path class="cls-2" d="M83.14,59.67l-7.19-3.43a.74.74,0,0,0-.33-.08.79.79,0,0,0-.67.33L70.6,63.18l5.19,7.94q.59-.92,4-6.19T83.14,59.67Z" transform="translate(-51.85 -46.19)"/></svg>