<svg id="图层_1" data-name="图层 1" xmlns="http://www.w3.org/2000/svg" viewBox="0 0 126 126"><defs><style>.cls-1{fill:#2674ca;}.cls-2{fill:none;stroke:#fff;stroke-linecap:round;stroke-miterlimit:10;stroke-width:5.4px;}.cls-3{fill:#fff;}</style></defs><title>USDC-LOGO</title><circle class="cls-1" cx="63" cy="63" r="63"/><path class="cls-2" d="M340.77,467A47.19,47.19,0,0,1,371,423" transform="translate(-324.95 -404.66)"/><path class="cls-2" d="M406.66,423.71A47.19,47.19,0,0,1,435.12,467" transform="translate(-324.95 -404.66)"/><path class="cls-2" d="M340.77,467A47.19,47.19,0,0,1,371,423" transform="translate(-324.95 -404.66)"/><path class="cls-2" d="M406.66,423.71A47.19,47.19,0,0,1,435.12,467" transform="translate(-324.95 -404.66)"/><path class="cls-2" d="M340.77,468.29a47.19,47.19,0,0,0,30.19,44" transform="translate(-324.95 -404.66)"/><path class="cls-2" d="M406.66,511.6a47.19,47.19,0,0,0,28.46-43.32" transform="translate(-324.95 -404.66)"/><path class="cls-3" d="M399.15,482.95a8.72,8.72,0,0,0-2.65-6.4q-2.65-2.65-8.78-4.74-8.43-2.54-12.73-6.8t-4.3-11.35a16,16,0,0,1,4-11.22,17.07,17.07,0,0,1,10.89-5.22V428h6.59v9.26A15.94,15.94,0,0,1,403,443q3.86,4.8,3.86,12.85h-8.18a13.37,13.37,0,0,0-2.63-8.6,8.77,8.77,0,0,0-7.26-3.3q-4.92,0-7.38,2.57a9.73,9.73,0,0,0-2.46,7,8.78,8.78,0,0,0,2.54,6.55q2.54,2.5,9.14,4.76,8.51,2.75,12.64,6.86t4.13,11.16q0,7.18-4.3,11.41t-11.81,5v8h-6.55v-8A19.12,19.12,0,0,1,373,494.11q-4.59-4.48-4.42-13.16l.08-.21h7.93q0,6.42,3.25,9.16a11.91,11.91,0,0,0,7.93,2.73q5.38,0,8.41-2.57A8.83,8.83,0,0,0,399.15,482.95Z" transform="translate(-324.95 -404.66)"/></svg>