<svg id="图层_1" data-name="图层 1" xmlns="http://www.w3.org/2000/svg" viewBox="0 0 208.86 210.6"><defs><style>.cls-1{fill:#0f0d28;fill-rule:evenodd;}</style></defs><title>USDx-logo</title><path class="cls-1" d="M1519.13,824.85h-7.25v48.22c13.81.32,27.6-.62,36.55.41l-.58,28.59s-28.3,1.54-40,1.68c-9,.11-5.5,5.08-1.74,5.8s25.33,5.81,32.49,9.28,11.63,6.23,13.92,23.21-3.81,41.71-38.87,42.35l-1.74,0v51h7.25a105.3,105.3,0,1,0,0-210.6Z" transform="translate(-1415.57 -824.85)"/><path class="cls-1" d="M1464.89,982.59l1.16-29s33.33,1.29,44.09-.52c7.53-1,3.48-4.64,3.48-4.64s-26-4.7-34.81-9.28-18.85-13.75-13.34-43.67c2.84-15.42,18.7-21.43,36.55-22.3V824.85h-66.44a20,20,0,0,0-20,20v170.6a20,20,0,0,0,20,20H1502V984.33C1476.13,983.55,1464.89,982.59,1464.89,982.59Z" transform="translate(-1415.57 -824.85)"/></svg>